<svg width="104" height="106" viewBox="0 0 104 106" fill="none" xmlns="http://www.w3.org/2000/svg">
<path d="M2 2H11.8232C16.2083 2 18.4009 2 20.0516 3.18976C21.7023 4.37952 22.3956 6.45959 23.7823 10.6197L27.2121 20.9091" stroke="#EDEDED" stroke-width="4" stroke-linecap="round"/>
<path d="M90.2428 83.9399H30.6848C29.7633 83.9399 29.3026 83.9398 28.9531 83.9008C25.2495 83.486 22.7124 79.9658 23.4902 76.3214C23.5635 75.9772 23.7093 75.5404 24.0006 74.6662C24.3242 73.6955 24.4859 73.2102 24.6647 72.7822C26.4943 68.3978 30.6335 65.414 35.3716 65.0648C35.8343 65.0307 36.3459 65.0308 37.3689 65.0308H71.3337" stroke="#EDEDED" stroke-width="4" stroke-linecap="round" stroke-linejoin="round"/>
<path d="M69.3051 65.0303H50.1369C42.0738 65.0303 38.0423 65.0303 34.8849 62.9484C31.7274 60.8665 30.1394 57.161 26.9632 49.7498L25.8991 47.2671C20.7968 35.3615 18.2457 29.4089 21.0481 25.1589C23.8504 20.9091 30.3267 20.909 43.2792 20.909H76.5649C91.0556 20.909 98.3009 20.9091 101.034 25.6181C103.767 30.3272 100.172 36.618 92.9824 49.1996L91.1955 52.3272C87.6532 58.5249 85.8827 61.6241 82.948 63.3272C80.0133 65.0303 76.4439 65.0303 69.3051 65.0303Z" stroke="#EDEDED" stroke-width="4" stroke-linecap="round"/>
<path d="M87.0892 106C90.5702 106 93.3922 103.178 93.3922 99.6974C93.3922 96.2163 90.5702 93.3943 87.0892 93.3943C83.6081 93.3943 80.7861 96.2163 80.7861 99.6974C80.7861 103.178 83.6081 106 87.0892 106Z" fill="#EDEDED"/>
<path d="M36.6653 106C40.1464 106 42.9684 103.178 42.9684 99.6974C42.9684 96.2163 40.1464 93.3943 36.6653 93.3943C33.1843 93.3943 30.3623 96.2163 30.3623 99.6974C30.3623 103.178 33.1843 106 36.6653 106Z" fill="#EDEDED"/>
</svg>
