<svg width="17" height="17" viewBox="0 0 17 17" fill="none" xmlns="http://www.w3.org/2000/svg">
<path d="M5.28771 8.55163C5.96004 9.94005 7.08273 11.0599 8.47287 11.7286C8.57541 11.7772 8.68883 11.7982 8.80196 11.7896C8.91509 11.781 9.02403 11.7431 9.11807 11.6796L11.1598 10.3157C11.25 10.2545 11.3543 10.2172 11.4628 10.2072C11.5714 10.1972 11.6807 10.2149 11.7805 10.2585L15.6027 11.9001C15.7334 11.9545 15.8425 12.0503 15.9133 12.1728C15.9842 12.2953 16.0128 12.4377 15.9947 12.578C15.8736 13.5235 15.4121 14.3925 14.6965 15.0224C13.981 15.6522 13.0605 15.9998 12.1072 16C9.1614 16 6.33624 14.8298 4.25323 12.7468C2.17022 10.6638 1 7.8386 1 4.89278C1.00021 3.93952 1.34777 3.019 1.97762 2.30346C2.60747 1.58792 3.47647 1.1264 4.422 1.00526C4.56234 0.987232 4.70472 1.01584 4.82721 1.08667C4.94969 1.15751 5.0455 1.26665 5.09987 1.39728L6.74145 5.22763C6.78414 5.32592 6.802 5.4332 6.79345 5.54002C6.78491 5.64684 6.75022 5.74991 6.69245 5.84016L5.32855 7.9146C5.26783 8.00843 5.23219 8.11626 5.22504 8.22779C5.21789 8.33932 5.23947 8.45082 5.28771 8.55163V8.55163Z" stroke="#363636" stroke-linecap="round" stroke-linejoin="round"/>
</svg>
