<svg width="15" height="19" viewBox="0 0 15 19" fill="none" xmlns="http://www.w3.org/2000/svg">
<path fill-rule="evenodd" clip-rule="evenodd" d="M7.49999 19C7.89749 19 15 11.5024 15 7.40999C15 3.31756 11.6421 0 7.49999 0C3.35786 0 0 3.31756 0 7.40999C0 11.5024 7.1025 19 7.49999 19ZM7.5 11.1162C9.60007 11.1162 11.3025 9.43418 11.3025 7.35931C11.3025 5.28445 9.60007 3.60245 7.5 3.60245C5.39995 3.60245 3.69751 5.28445 3.69751 7.35931C3.69751 9.43418 5.39995 11.1162 7.5 11.1162Z" fill="#363636"/>
<path fill-rule="evenodd" clip-rule="evenodd" d="M0 7.40999C0 11.5024 7.1025 19 7.49999 19V11.1162C5.39994 11.1161 3.69751 9.43417 3.69751 7.35931C3.69751 5.28446 5.39994 3.60246 7.49999 3.60245V0C3.35786 0 0 3.31756 0 7.40999Z" fill="#363636"/>
</svg>
