<?xml version="1.0" encoding="UTF-8"?>
<!DOCTYPE svg PUBLIC "-//W3C//DTD SVG 1.1//EN" "http://www.w3.org/Graphics/SVG/1.1/DTD/svg11.dtd">
<!-- Creator: CorelDRAW X8 -->
<svg xmlns="http://www.w3.org/2000/svg" xml:space="preserve" width="140px" height="140px" version="1.1" style="shape-rendering:geometricPrecision; text-rendering:geometricPrecision; image-rendering:optimizeQuality; fill-rule:evenodd; clip-rule:evenodd"
viewBox="0 0 1400 1400"
 xmlns:xlink="http://www.w3.org/1999/xlink">
 <defs>
  <style type="text/css">
   <![CDATA[
    .fil0 {fill:none}
    .fil1 {fill:#34A952;fill-rule:nonzero}
   ]]>
  </style>
 </defs>
 <g id="Слой_x0020_1">
  <metadata id="CorelCorpID_0Corel-Layer"/>
  <rect class="fil0" width="1400" height="1400"/>
  <path class="fil1" d="M307 891l158 -26c9,64 34,112 75,147 41,33 98,50 171,50 74,0 129,-15 165,-45 35,-29 53,-65 53,-105 0,-36 -16,-65 -48,-86 -22,-14 -77,-32 -164,-54 -118,-30 -199,-55 -245,-77 -45,-22 -79,-52 -103,-90 -23,-38 -35,-80 -35,-127 0,-42 10,-81 29,-117 19,-36 45,-65 79,-89 25,-18 59,-34 102,-47 43,-12 89,-19 138,-19 74,0 139,11 195,32 57,22 98,51 125,87 26,37 45,86 55,148l-157 22c-7,-50 -28,-88 -62,-116 -34,-28 -82,-41 -144,-41 -74,0 -126,12 -158,36 -31,24 -47,53 -47,86 0,20 7,39 20,56 13,17 33,31 61,43 16,6 63,19 142,41 113,30 192,55 237,74 45,19 80,47 106,84 26,37 38,82 38,137 0,53 -15,103 -46,151 -32,47 -77,83 -136,109 -59,26 -125,39 -199,39 -123,0 -217,-26 -282,-77 -64,-51 -105,-126 -123,-226z"/>
 </g>
</svg>
