<svg width="25" height="24" viewBox="0 0 25 24" fill="none" xmlns="http://www.w3.org/2000/svg">
<path d="M1 1H3.26044C4.26952 1 4.77406 1 5.15391 1.26312C5.53376 1.52624 5.6933 1.98625 6.01241 2.90627L6.80165 5.18182" stroke="#363636" stroke-linecap="round"/>
<path d="M21.3055 19.1208H7.60041C7.38836 19.1208 7.28235 19.1208 7.20191 19.1121C6.34966 19.0204 5.76584 18.2419 5.94482 17.4359C5.9617 17.3598 5.99524 17.2632 6.06229 17.0699C6.13674 16.8552 6.17396 16.7479 6.21509 16.6532C6.63612 15.6836 7.5886 15.0237 8.67889 14.9465C8.78538 14.939 8.9031 14.939 9.13851 14.939H16.9542" stroke="#363636" stroke-linecap="round" stroke-linejoin="round"/>
<path d="M16.4885 14.9397H12.0776C10.2222 14.9397 9.29452 14.9397 8.56795 14.4793C7.84138 14.0189 7.47595 13.1994 6.74506 11.5604L6.5002 11.0113C5.3261 8.37835 4.73905 7.0619 5.38392 6.12201C6.02877 5.18213 7.51905 5.18213 10.4996 5.18213H18.1591C21.4936 5.18213 23.1608 5.18213 23.7897 6.22355C24.4186 7.26498 23.5913 8.65623 21.937 11.4387L21.5258 12.1304C20.7106 13.501 20.3032 14.1864 19.6279 14.5631C18.9526 14.9397 18.1312 14.9397 16.4885 14.9397Z" stroke="#363636" stroke-linecap="round"/>
<path d="M21.8571 22.3572C21.8571 22.9884 21.3455 23.5001 20.7143 23.5001C20.0831 23.5001 19.5714 22.9884 19.5714 22.3572C19.5714 21.726 20.0831 21.2144 20.7143 21.2144C21.3455 21.2144 21.8571 21.726 21.8571 22.3572Z" stroke="#363636"/>
<path d="M10.9047 22.3572C10.9047 22.9884 10.3931 23.5001 9.76188 23.5001C9.13069 23.5001 8.61902 22.9884 8.61902 22.3572C8.61902 21.726 9.13069 21.2144 9.76188 21.2144C10.3931 21.2144 10.9047 21.726 10.9047 22.3572Z" stroke="#363636"/>
</svg>
