<svg width="40" height="28" viewBox="0 0 40 28" fill="none" xmlns="http://www.w3.org/2000/svg">
<path fill-rule="evenodd" clip-rule="evenodd" d="M23.2954 3C18.5515 3 14.7059 6.97937 14.7059 11.8882C14.7059 16.7969 18.5515 20.7764 23.2954 20.7764C25.4403 20.7764 27.4023 19.9621 28.9071 18.6172L34.1089 24L35.0001 23.0779L29.7982 17.6951C31.0979 16.138 31.8848 14.1077 31.8848 11.8882C31.8848 6.97937 28.0391 3 23.2954 3ZM15.9662 11.8882C15.9662 7.69958 19.2475 4.30406 23.2954 4.30406C27.3432 4.30406 30.6246 7.69958 30.6246 11.8882C30.6246 13.9826 29.8049 15.8778 28.4779 17.251C27.1509 18.6242 25.3194 19.4723 23.2954 19.4723C19.2475 19.4723 15.9662 16.0768 15.9662 11.8882Z" fill="#363636"/>
<path d="M12.9412 17H5V18H12.9412V17Z" fill="#363636"/>
<path d="M11.1765 12H5V13H11.1765V12Z" fill="#363636"/>
<path d="M12.9412 6H5V7H12.9412V6Z" fill="#363636"/>
</svg>
