<svg width="20" height="20" viewBox="0 0 20 20" fill="none" xmlns="http://www.w3.org/2000/svg">
<path d="M1.02832 1.00003H2.82293C3.62407 1.00003 4.02463 1.00003 4.3262 1.21739C4.62777 1.43475 4.75444 1.81476 5.00778 2.57477L5.63438 4.45458" stroke="#363636" stroke-linecap="round"/>
<path d="M17.1496 15.9698H6.2688C6.10045 15.9698 6.01628 15.9698 5.95242 15.9627C5.2758 15.8869 4.81229 15.2438 4.95439 14.578C4.96779 14.5151 4.99442 14.4353 5.04765 14.2756C5.10676 14.0982 5.13631 14.0096 5.16896 13.9314C5.50322 13.1304 6.25943 12.5853 7.12503 12.5215C7.20957 12.5153 7.30303 12.5153 7.48993 12.5153H13.695" stroke="#363636" stroke-linecap="round" stroke-linejoin="round"/>
<path d="M13.3243 12.5152H9.82245C8.34939 12.5152 7.61287 12.5152 7.03603 12.1348C6.45919 11.7545 6.16906 11.0775 5.58879 9.72355L5.39439 9.26997C4.46225 7.09491 3.99618 6.00741 4.50815 5.23098C5.02012 4.45456 6.20329 4.45456 8.5696 4.45456H14.6506C17.298 4.45456 18.6216 4.45456 19.1209 5.31487C19.6202 6.17518 18.9634 7.32447 17.65 9.62302L17.3235 10.1944C16.6764 11.3267 16.3529 11.8929 15.8168 12.204C15.2806 12.5152 14.6285 12.5152 13.3243 12.5152Z" stroke="#363636" stroke-linecap="round"/>
<path d="M16.5734 20.0001C17.2094 20.0001 17.7249 19.4845 17.7249 18.8486C17.7249 18.2126 17.2094 17.6971 16.5734 17.6971C15.9374 17.6971 15.4219 18.2126 15.4219 18.8486C15.4219 19.4845 15.9374 20.0001 16.5734 20.0001Z" fill="#363636"/>
<path d="M7.36148 20.0001C7.99744 20.0001 8.51299 19.4845 8.51299 18.8486C8.51299 18.2126 7.99744 17.6971 7.36148 17.6971C6.72551 17.6971 6.20996 18.2126 6.20996 18.8486C6.20996 19.4845 6.72551 20.0001 7.36148 20.0001Z" fill="#363636"/>
</svg>
