<?xml version="1.0" encoding="UTF-8"?>
<!DOCTYPE svg PUBLIC "-//W3C//DTD SVG 1.1//EN" "http://www.w3.org/Graphics/SVG/1.1/DTD/svg11.dtd">
<!-- Creator: CorelDRAW 2020 (64-Bit) -->
<svg xmlns="http://www.w3.org/2000/svg" xml:space="preserve" width="368.424mm" height="174.692mm" version="1.1" style="shape-rendering:geometricPrecision; text-rendering:geometricPrecision; image-rendering:optimizeQuality; fill-rule:evenodd; clip-rule:evenodd"
viewBox="0 0 4344.52 2059.99"
 xmlns:xlink="http://www.w3.org/1999/xlink"
 xmlns:xodm="http://www.corel.com/coreldraw/odm/2003">
 <defs>
  <style type="text/css">
   <![CDATA[
    .fil0 {fill:#2B2A29;fill-rule:nonzero}
    .fil1 {fill:#243302;fill-rule:nonzero}
    .fil3 {fill:url(#id0);fill-rule:nonzero}
    .fil7 {fill:url(#id1);fill-rule:nonzero}
    .fil2 {fill:url(#id2);fill-rule:nonzero}
    .fil6 {fill:url(#id3);fill-rule:nonzero}
    .fil5 {fill:url(#id4);fill-rule:nonzero}
    .fil4 {fill:url(#id5);fill-rule:nonzero}
   ]]>
  </style>
  <linearGradient id="id0" gradientUnits="userSpaceOnUse" x1="309.06" y1="1001.77" x2="309.06" y2="0">
   <stop offset="0" style="stop-opacity:1; stop-color:#F5570E"/>
   <stop offset="1" style="stop-opacity:1; stop-color:#B41302"/>
  </linearGradient>
  <linearGradient id="id1" gradientUnits="userSpaceOnUse" x1="765.49" y1="2059.99" x2="765.49" y2="1613.02">
   <stop offset="0" style="stop-opacity:1; stop-color:#B01700"/>
   <stop offset="0.282353" style="stop-opacity:1; stop-color:#7A1600"/>
   <stop offset="0.658824" style="stop-opacity:1; stop-color:#441400"/>
   <stop offset="1" style="stop-opacity:1; stop-color:#311804"/>
  </linearGradient>
  <linearGradient id="id2" gradientUnits="userSpaceOnUse" x1="131.43" y1="846.27" x2="1041.63" y2="846.27">
   <stop offset="0" style="stop-opacity:1; stop-color:#094402"/>
   <stop offset="1" style="stop-opacity:1; stop-color:#2D7A12"/>
  </linearGradient>
  <linearGradient id="id3" gradientUnits="userSpaceOnUse" x1="475.81" y1="1509.99" x2="1101.5" y2="1509.99">
   <stop offset="0" style="stop-opacity:1; stop-color:#C92001"/>
   <stop offset="0.211765" style="stop-opacity:1; stop-color:#8C3303"/>
   <stop offset="1" style="stop-opacity:1; stop-color:#4E4605"/>
  </linearGradient>
  <linearGradient id="id4" gradientUnits="userSpaceOnUse" x1="475.35" y1="1438.2" x2="1174.81" y2="1661.5">
   <stop offset="0" style="stop-opacity:1; stop-color:#A73803"/>
   <stop offset="0.341176" style="stop-opacity:1; stop-color:#7B3F04"/>
   <stop offset="1" style="stop-opacity:1; stop-color:#4E4605"/>
  </linearGradient>
  <linearGradient id="id5" gradientUnits="userSpaceOnUse" x1="141.67" y1="1162.64" x2="906.99" y2="510.93">
   <stop offset="0" style="stop-opacity:1; stop-color:#033100"/>
   <stop offset="1" style="stop-opacity:1; stop-color:#005902"/>
  </linearGradient>
 </defs>
 <g id="Слой_x0020_1">
  <metadata id="CorelCorpID_0Corel-Layer"/>
  <g id="_2965413437744">
   <path class="fil0" d="M4236.07 538.56c-1.22,-8.99 0.14,-19.85 -2.05,-27.07 -5.56,-18.33 -25.27,-16.81 -42.72,-16.76 -83.64,0.19 -167.29,0.39 -250.93,0.64 -3.62,0.03 -7.05,-0.03 -10.34,-0.11 -1.19,-0.03 -2.13,-1 -2.13,-2.19l0.17 -80.57c0,-0.94 0.75,-1.69 1.69,-1.69 96.67,0.17 193.05,0.44 289.19,0.83 17.09,0.06 30.69,0.83 40.79,2.32 46.15,6.86 79.58,35.36 83.92,84.17 0.58,6.47 0.86,17.53 0.86,33.15 0,73.74 -0.06,147.6 -0.17,221.59 0,1.27 -1.05,2.32 -2.32,2.32l-104.3 -0.08c-1.44,0 -2.57,-1.13 -2.6,-2.57 -0.19,-14.02 -0.17,-27.4 0.08,-40.15 0.03,-0.97 -0.17,-1.58 -0.53,-1.88 -1,-0.83 -2.49,-0.72 -3.37,0.25 -10.29,11.25 -21.01,22.26 -32.16,33.01 -9.26,8.93 -24.17,11.06 -38.96,11.17 -55.69,0.39 -101.78,0.36 -138.25,-0.08 -71.09,-0.88 -114.83,-50.96 -108.56,-121.94 4.89,-55.72 48.39,-90.78 101.64,-93.15 10.12,-0.44 20.27,-0.64 30.41,-0.61 63.4,0.19 126.75,0.19 190.1,0 0.33,0 0.58,-0.28 0.53,-0.61zm-203.53 79.38c-23.09,8.24 -24.64,40.48 -1.69,50.74 3.57,1.58 9.76,2.43 18.53,2.52 34.01,0.3 87.54,0.3 160.59,-0.06 33.29,-0.14 24,-29.56 25.91,-51.6 0.17,-2.19 -1.52,-4.04 -3.71,-4.04 -62.52,0.08 -124.07,0.28 -184.65,0.64 -6.75,0.03 -11.75,0.64 -14.99,1.8z"/>
   <path class="fil0" d="M3087.64 627.93c0.11,9.23 -0.28,23.92 4.18,31.55 6.55,11.17 24.22,12.3 36.33,12.25 95.62,-0.28 191.31,-0.42 287.07,-0.39 0.58,0 0.86,0.28 0.89,0.86l0.19 79.74c0,1.77 -1.41,3.18 -3.18,3.18 -100.65,0.08 -200.99,0.08 -301.06,-0.06 -46.34,-0.06 -96.33,-4.23 -121.33,-49.02 -7.96,-14.29 -11.97,-31.77 -12.06,-52.4 -0.25,-63.95 -0.22,-107.5 0.14,-130.65 0.77,-53.17 28.2,-93.15 80.3,-107.64 12.36,-3.46 29.89,-4.26 45.15,-4.29 62.57,-0.08 125.15,-0.08 187.72,-0.03 60.94,0.05 106.95,23.09 121.83,86.32 1.3,5.58 1.99,18.97 2.07,40.15 0.08,28.18 0.22,55.58 0.44,82.23 0.03,2.29 -1.11,3.46 -3.4,3.46l-320.69 0.08c-3.1,0 -4.62,1.55 -4.59,4.65zm3.71 -81.49l221.31 0.39c2.16,0 3.9,-1.74 3.93,-3.9l0.03 -17.59c0.03,-17.47 -14.49,-31.69 -32.43,-31.72l-164.13 -0.28c-17.95,-0.03 -32.52,14.1 -32.55,31.6l-0.03 17.59c-0.03,2.16 1.72,3.9 3.87,3.9z"/>
   <path class="fil0" d="M2529.04 1000c0.03,2.54 0.88,2.85 2.57,0.94 8.54,-9.68 17.31,-19.24 26.32,-28.67 13.69,-14.29 28.15,-17.12 47.75,-17.03 54.83,0.25 109.69,0.42 164.52,0.55 8.1,0.03 17.39,1.19 27.9,3.51 40.84,9.07 71.28,34.29 81.43,74.88 2.52,10.06 3.9,28.4 4.15,55.02 0.3,33.6 0.25,67.25 -0.17,100.9 -0.69,55.55 -33.54,96.33 -88.48,106.15 -14.35,2.57 -28.87,3.82 -43.49,3.76 -73.27,-0.28 -146.24,-0.5 -218.91,-0.64 -1.49,0 -2.71,1.22 -2.71,2.71l0.11 95.28c0,2.07 -1.69,3.76 -3.76,3.76l-99.07 0.19c-0.69,0 -1.24,-0.55 -1.24,-1.24l-0.06 -441.91c0,-1.36 1.11,-2.46 2.46,-2.46l97.52 -0.17c1.49,0 2.68,1.19 2.71,2.65l0.44 41.81zm232.87 47.86c-4.98,-2.32 -10.73,-3.48 -17.28,-3.48 -63.13,0 -126.28,0.08 -189.4,0.25 -23.72,0.06 -26.35,14.93 -26.35,35.61 0,44.21 -0.03,88.32 -0.06,132.34 0,1.02 0.8,1.82 1.83,1.85 69.62,0.25 139.33,0.25 209.12,0 18.19,-0.06 34.56,-2.41 34.62,-23.61 0.08,-40.87 0.17,-81.65 0.19,-122.35 0.03,-9.79 -4.2,-16.64 -12.66,-20.6z"/>
   <path class="fil0" d="M1492.07 1301.47l0 69.38c0,1.35 -1.11,2.46 -2.46,2.43l-95.01 -0.44c-1.69,-0.03 -3.04,-1.38 -3.04,-3.04l0.28 -151.55c0,-1.96 1.6,-3.54 3.57,-3.54l39.98 0.06c1.52,0 2.87,-1.02 3.32,-2.49 18.22,-61.11 36.64,-122.22 55.22,-183.32 14.74,-48.44 40.59,-73.11 92.85,-73.13 86.68,-0.06 172.68,-0.11 257.98,-0.19 2.41,0 3.62,1.22 3.62,3.62l0.11 252.45c0,1.69 0.86,2.54 2.54,2.57l43 0.58c1,0.03 1.8,0.83 1.8,1.82l0.14 154.37c0,1.19 -0.94,2.13 -2.13,2.13l-95.59 -0.06c-1.8,0 -2.71,-0.88 -2.71,-2.68l0.08 -67.88c0,-1.69 -1.35,-3.04 -3.04,-3.04l-298.54 0.03c-1.3,0 -1.96,0.64 -1.96,1.94zm92.33 -241.36c-15.71,49.33 -31.27,100.29 -46.67,152.88 -0.36,1.19 0.08,1.77 1.33,1.77l204.81 -0.25c1,0 1.8,-0.8 1.8,-1.8l-0.14 -165.76c0,-1.02 -0.8,-1.85 -1.83,-1.91 -42.58,-2.07 -85.88,-0.66 -128.57,-1.02 -13.38,-0.08 -26.24,2.02 -30.72,16.09z"/>
   <path class="fil0" d="M2248.8 1254.77c0.03,-1.33 -1.6,-2.02 -2.54,-1.05 -10.59,10.98 -21.24,21.95 -31.99,32.96 -9.95,10.18 -28.56,13.47 -44.77,13.41 -69.38,-0.19 -114.56,-0.44 -135.49,-0.8 -71.31,-1.19 -116.8,-54.89 -107.23,-125.75 6.03,-44.68 35.39,-76.56 80.27,-86.49 8.18,-1.83 19.94,-2.79 35.25,-2.88 66.86,-0.42 134.57,-0.61 203.15,-0.61 1.99,0 3.59,-1.66 3.54,-3.68 -0.94,-28.62 -1.24,-40.43 -35.26,-40.45 -90.33,-0.08 -180.53,-0.11 -270.53,-0.03 -1.3,0.03 -2.38,-1.05 -2.35,-2.35l0.06 -78.61c0,-1.47 1.19,-2.65 2.65,-2.65 100.23,-0.17 200.41,-0.17 300.59,0 59.83,0.08 109.85,27.4 112.9,93.29 0.47,10.81 0.72,21.62 0.72,32.46 -0.03,72.11 0.06,143.78 0.19,215.04 0,1.83 -1.47,3.32 -3.29,3.29l-104.96 -0.47c-0.97,0 -1.44,-0.5 -1.44,-1.46l0.52 -43.16zm-189.9 -94.62c-11.53,0.06 -21.76,3.95 -27.9,14.02 -8.18,13.49 -2.49,32.07 11.81,38.32 4.67,2.05 12.8,3.1 24.36,3.18 50.52,0.25 101.04,0.25 151.55,-0.03 14.16,-0.06 27.76,-1.41 28.76,-19.02 0.69,-11.72 1.19,-22.7 1.55,-32.93 0.08,-2.19 -1.66,-3.98 -3.82,-3.98 -63.35,0 -125.45,0.14 -186.31,0.44z"/>
   <path class="fil0" d="M3401.93 1192.29c-0.11,59.38 -48.33,107.41 -107.69,107.32l-245.26 -0.43c-59.37,-0.09 -107.42,-48.31 -107.32,-107.69l0.23 -128.57c0.11,-59.38 48.33,-107.41 107.69,-107.32l245.26 0.43c59.37,0.09 107.43,48.31 107.32,107.69l-0.22 128.57zm-109.24 -122.81c0,-13.11 -10.65,-23.75 -23.75,-23.75l-200.63 0c-13.11,0 -23.75,10.65 -23.75,23.75l0 122.55c0,13.11 10.64,23.75 23.75,23.75l200.63 0c13.11,0 23.75,-10.65 23.75,-23.75l0 -122.55z"/>
   <path class="fil0" d="M3925.94 1055.27c-0.36,-0.8 -1.49,-0.75 -1.8,0.08 -1.41,3.9 -3.07,7.6 -5.03,11.06 -39.4,70.04 -78.91,139.99 -118.48,209.92 -10.56,18.64 -20.63,22.87 -42.67,23.48 -22.78,0.61 -45.32,2.24 -58.12,-20.3 -41.97,-73.97 -84,-148.57 -126.11,-223.78 -0.53,-0.94 -1.94,-0.58 -1.94,0.5l0.06 240.01c0,2.41 -1.22,3.62 -3.65,3.62l-96.83 -0.14c-1.27,0 -2.29,-1.02 -2.29,-2.29l0 -339.71c0,-1.05 0.86,-1.91 1.91,-1.94 40.98,-0.28 82.07,-0.25 123.24,0.08 27.68,0.22 36.75,16.67 50.49,41.17 34.07,60.69 68.3,121.99 102.72,183.9 0.5,0.86 1.63,1.08 2.38,0.44 0.86,-0.72 1.71,-1.8 2.52,-3.24 37.58,-66.5 75.26,-132.97 113.03,-199.36 8.77,-15.37 22.98,-23.09 42.64,-23.12 40.53,-0.08 81.02,-0.05 121.47,0.06 1.8,0 2.71,0.91 2.71,2.74l0.14 338.91c0,1.41 -1.13,2.54 -2.52,2.52l-100.45 -0.41c-1.44,0 -2.6,-1.19 -2.6,-2.63 -0.03,-79.11 -0.08,-158.49 -0.17,-238.13 0,-1.35 -0.22,-2.52 -0.64,-3.46z"/>
   <path class="fil0" d="M1549.61 507.24c-2.07,4.34 -3.12,10.98 -3.1,19.91 0.14,37.55 0.19,75.1 0.22,112.68 0,22.12 7.22,31.25 29.61,31.33 84.91,0.33 169.75,0.44 254.55,0.3 1.08,0 1.6,0.52 1.6,1.6l0.22 80.1c0,1.08 -0.88,1.96 -1.96,1.96 -85.52,0.06 -171.24,0.03 -257.18,-0.08 -23.42,-0.03 -42.72,-0.44 -62.21,-6.58 -39.43,-12.41 -64.76,-41.72 -71.61,-83.09 -1.13,-7 -1.83,-18.28 -2.02,-33.84 -0.25,-21.79 -0.08,-58.43 0.52,-109.91 0.91,-76.65 53.37,-110.05 124.26,-110.22 89.7,-0.25 178.95,-0.42 267.79,-0.55 1.55,0 2.32,0.77 2.32,2.35l0.03 78c0,2.18 -1.66,4.06 -3.98,4.53 -1.11,0.22 -4.76,-0.77 -6.53,-0.77 -83.09,0 -166.15,-0.11 -249.24,-0.36 -11.48,-0.03 -19.25,4.17 -23.31,12.64z"/>
   <path class="fil0" d="M1970.11 627.93c0.11,9.23 -0.28,23.92 4.18,31.55 6.55,11.17 24.22,12.3 36.33,12.25 95.62,-0.28 191.31,-0.42 287.07,-0.39 0.58,0 0.86,0.28 0.89,0.86l0.19 79.74c0,1.77 -1.41,3.18 -3.18,3.18 -100.65,0.08 -200.99,0.08 -301.06,-0.06 -46.34,-0.06 -96.33,-4.23 -121.33,-49.02 -7.96,-14.29 -11.97,-31.77 -12.06,-52.4 -0.25,-63.95 -0.22,-107.5 0.14,-130.65 0.77,-53.17 28.2,-93.15 80.3,-107.64 12.36,-3.46 29.89,-4.26 45.15,-4.29 62.57,-0.08 125.15,-0.08 187.72,-0.03 60.94,0.05 106.95,23.09 121.83,86.32 1.3,5.58 1.99,18.97 2.07,40.15 0.08,28.18 0.22,55.58 0.44,82.23 0.03,2.29 -1.11,3.46 -3.4,3.46l-320.69 0.08c-3.1,0 -4.62,1.55 -4.59,4.65zm3.71 -81.49l221.31 0.39c2.16,0 3.9,-1.74 3.93,-3.9l0.03 -17.59c0.03,-17.47 -14.49,-31.69 -32.43,-31.72l-164.13 -0.28c-17.95,-0.03 -32.52,14.1 -32.55,31.6l-0.03 17.59c-0.03,2.16 1.71,3.9 3.87,3.9z"/>
   <path class="fil0" d="M2806.48 510.45c-0.36,-0.8 -1.49,-0.75 -1.8,0.08 -1.41,3.9 -3.07,7.6 -5.03,11.06 -39.4,70.04 -78.91,139.99 -118.48,209.92 -10.56,18.64 -20.63,22.87 -42.66,23.48 -22.78,0.61 -45.32,2.24 -58.12,-20.3 -41.97,-73.97 -84,-148.57 -126.11,-223.78 -0.53,-0.94 -1.94,-0.58 -1.94,0.5l0.06 240.01c0,2.41 -1.22,3.62 -3.65,3.62l-96.83 -0.14c-1.27,0 -2.29,-1.02 -2.29,-2.29l0 -339.71c0,-1.05 0.86,-1.91 1.91,-1.94 40.98,-0.28 82.07,-0.25 123.24,0.08 27.68,0.22 36.75,16.67 50.49,41.17 34.07,60.69 68.3,121.99 102.72,183.9 0.5,0.86 1.63,1.08 2.38,0.44 0.86,-0.72 1.71,-1.8 2.52,-3.24 37.58,-66.5 75.26,-132.97 113.03,-199.36 8.77,-15.37 22.98,-23.09 42.64,-23.12 40.53,-0.08 81.02,-0.05 121.47,0.06 1.8,0 2.71,0.91 2.71,2.74l0.14 338.91c0,1.41 -1.13,2.54 -2.52,2.52l-100.45 -0.42c-1.44,0 -2.6,-1.19 -2.6,-2.63 -0.03,-79.11 -0.08,-158.49 -0.17,-238.13 0,-1.35 -0.22,-2.52 -0.64,-3.46z"/>
   <path class="fil0" d="M3764.88 536.13c-0.08,0.03 -0.28,0.17 -0.61,0.39 -0.19,0.14 -0.39,0.19 -0.61,0.19 -5.58,0.04 -11.15,0.07 -16.73,0.08l-16.45 0c-6.78,-0.01 -13.56,-0.05 -20.34,-0.1l0 0.1 -75.84 0 0 -0.11c-7.14,0.06 -14.28,0.09 -21.43,0.11l-0.1 0c-11.12,0.03 -22.23,0 -33.35,-0.08 -0.22,0 -0.42,-0.05 -0.61,-0.19 -0.33,-0.22 -0.52,-0.36 -0.61,-0.39 -0.64,-0.22 -1.05,-0.86 -1.05,-1.58l-0.06 -122.02c0,-0.83 -0.69,-1.49 -1.52,-1.49l-99.27 0c-1.27,0 -2.32,1.05 -2.32,2.32l0 339.41c0,1.22 0.97,2.19 2.18,2.19l99.15 0.28c1.05,0 1.88,-0.83 1.88,-1.88l-0.05 -129.79c0,-0.75 0.58,-1.35 1.33,-1.38 11.38,-0.28 22.81,-0.41 34.29,-0.39l0 0.23 144.19 0c2.55,0.05 5.09,0.1 7.63,0.17 0.75,0.03 1.33,0.64 1.33,1.38l-0.05 129.79c0,1.05 0.83,1.88 1.88,1.88l99.16 -0.28c1.22,0 2.18,-0.97 2.18,-2.19l0 -339.41c0,-1.27 -1.05,-2.32 -2.32,-2.32l-99.27 0c-0.83,0 -1.52,0.66 -1.52,1.49l-0.06 122.02c0,0.72 -0.41,1.35 -1.05,1.58z"/>
  </g>
  <g id="_2965413442448">
   <path class="fil1" d="M1018.23 1039.71c-1,5.62 25.56,14.72 28.93,21.62 0.67,1.33 -9.11,12.56 -9.65,13.98 -7.11,18.8 -36.45,44.76 -50.76,53.58 -51.42,31.62 -76.7,49.47 -129.36,78.93 -4.58,2.58 -27.42,10.97 -31.2,13.38 -58.99,37.48 -128.28,64.38 -179.74,111.68 -1,0.92 -2.12,1.62 -3.33,2.16 -1.29,0.54 -2.54,1.37 -3.79,2.5 -82.16,21.8 -164.74,41.6 -247.77,59.36 -11.02,2.37 -29.2,5.28 -54.54,8.78 -11.59,-2.04 -38.98,-10.05 -46.44,-17.83 -53.21,-34.74 25.85,-130.55 51.72,-162.17 27.83,-33.99 57.08,-65.35 87.73,-94.02 142.9,-16.39 279.84,-47.38 419.16,-78.96 55.16,-12.52 113.69,-22.01 169.02,-12.98z"/>
   <path class="fil2" d="M322.46 984.92l29.45 -27.17c77.96,-68.06 146.56,-116.69 222.44,-172.6 75.42,-55.58 147.02,-115.65 214.86,-180.25 80.87,-76.96 158.25,-167.52 192.98,-274.35 3.04,-9.36 0.83,-25.13 6.86,-32.07 0.92,-1.04 1.12,-2.21 0.58,-3.45 -1.75,-4.16 -4.62,-6.28 -8.65,-6.41 1.46,-2.04 3.04,-3.04 4.7,-3.04 1.29,0.04 2.54,0.92 3.79,2.7 101.55,145.52 41.56,308.96 -66.56,429.52 -43.14,48.05 -90.69,91.27 -142.69,129.63 -94.52,69.68 -186.08,142.94 -274.64,219.81l-69.64 64.4c-30.66,28.66 -59.9,60.03 -87.73,94.02 -25.88,31.62 -98.59,125.67 -45.39,160.41 5.12,3.33 17.73,9.6 42.31,18.46 -20.3,3.76 -128.77,7.48 -173.52,-24.43 -31.31,-34.63 -42.01,-56.25 -39.93,-93.74 0.92,-16.47 3.79,-35.44 9.49,-52.08 32.49,-94.43 106.08,-180.5 181.29,-249.35z"/>
   <path class="fil3" d="M78.44 570.63c-18.39,-135.45 -21.38,-271.27 14.98,-404.48 2.79,-10.28 6.86,-19.35 12.23,-27.25 2.54,-3.74 3.99,-3.37 4.37,1.16 1.25,14.6 3.25,30.29 6.03,46.97 8.53,51.46 20.55,116.65 36.15,195.56 12.65,63.98 31.32,125.01 56.08,183.04 21.97,50.5 54.04,94.02 96.22,130.58 27.75,24.05 55.37,48.59 82.91,73.59l-63.77 48.09c-26.33,18.68 -52.71,37.27 -77.46,57.83 -19.84,16.51 -39.52,33.28 -59.11,50.38 -13.94,-20.34 -25.71,-41.64 -35.28,-63.86 -39.52,-91.48 -61.9,-193.07 -73.34,-291.62zm-76.71 146.1c-3.78,-66.52 -1.37,-132.46 7.24,-197.81 6.41,-48.55 13.6,-97.93 27.25,-145.02 0.37,-1.33 1.29,-1.87 2.66,-1.58l1.08 0.21c0.71,0.12 1,0.54 0.91,1.25 -1.37,11.02 -1.83,19.34 -1.46,25.04 2.08,31.87 4.03,63.73 5.82,95.6 2.25,40.73 8.82,81.33 13.73,122.14 2.5,20.59 8.28,51.54 17.35,92.85 18.55,75.75 40.19,144.39 78.58,212.66 4.28,7.61 8.03,15.6 11.23,24l-49.92 55.7c-36.65,-40.06 -63.73,-82.53 -81.2,-127.5 -18.43,-47.3 -29.49,-99.8 -33.28,-157.54zm274.23 -706.16c17.06,-7.28 30.66,-13.44 46.76,-9.15 1.42,0.37 1.91,2.16 0.87,3.16 -19.47,19.3 -33.4,41.1 -46.88,64.69 -1.37,2.45 -3.87,4.08 -6.66,4.33l-80.54 8.15c-1.71,0.17 -3.12,-1.29 -2.87,-3 0.21,-1.21 0.87,-2.45 2,-3.83 24.09,-28.33 53.16,-49.75 87.32,-64.35zm43.85 662.42c-0.92,2.68 -5.2,3.64 -9.55,2.15 -4.34,-1.51 -7.09,-4.92 -6.17,-7.6 0.92,-2.69 5.2,-3.64 9.55,-2.15 4.34,1.51 7.09,4.92 6.17,7.6zm132.08 48.32l-46.47 34.86c-10.27,-7.99 -28.08,-23.34 -53.46,-46.05 -13.52,-12.06 -11.98,-24.54 -10.07,-39.73 0.42,-3.24 3.29,-5.57 6.53,-5.28 35.11,3 79.21,7.7 110.12,23.63 1.46,0.75 2.29,2.29 2.16,3.91 -0.75,8.57 -3.7,18.14 -8.82,28.66zm59.99 -45.01c-8.86,0.37 -16.39,-0.37 -22.67,-2.25 -1.17,-0.33 -1.91,-1.42 -1.87,-2.62l5.91 -142.44c0.21,-5.2 2.75,-6.95 7.7,-5.24 40.89,14.35 78.71,34.44 113.44,60.2 0.99,0.74 0.41,22.6 0.35,22.72 -15.06,25.06 -76.02,48.96 -102.85,69.64zm-73.13 -21.22c-30.53,-7.74 -61.19,-12.77 -91.98,-15.06 -2.87,-0.21 -4.95,-2.83 -4.49,-5.7 1.25,-7.57 2,-14.85 2.25,-21.84 1.33,-36.69 2.45,-74.17 3.33,-112.4 0.04,-2.45 1.33,-3.66 3.79,-3.62 38.65,0.87 76.59,6.32 113.82,16.27 1.91,0.5 3.2,2.25 3.12,4.2l-5.2 142.23c-0.04,2.08 -1.08,2.87 -3.12,2.41 -7.32,-1.62 -16.27,-5.16 -21.51,-6.49zm-165.9 -19.72c-29.83,-37.61 -49.17,-79.33 -66.73,-124.97 -2.08,-5.41 -0.21,-8.32 5.57,-8.69l105.62 -6.95c3.7,-0.25 5.53,1.5 5.41,5.24l-3.99 135.57c-0.04,2.62 -1.42,4.08 -4.04,4.29 -12.27,1.08 -33.78,5.62 -41.85,-4.49zm338.08 -83.03c-32.07,-22.96 -74.51,-45.05 -114.07,-55 -1.87,-0.46 -2.83,-1.66 -2.87,-3.58l-3.95 -107.62c-0.08,-2.58 2.54,-4.37 4.91,-3.33 41.89,18.26 81.04,40.6 117.44,66.93 3.25,2.33 4.95,6.32 5.16,11.94 1.04,28.12 0.67,57.45 -1.08,87.98 -0.25,4.24 -2.08,5.12 -5.53,2.66zm-444.21 -183.29c-0.46,-3.62 1.08,-5.66 4.66,-6.2l12.02 -1.75c3,-0.46 5.57,2.04 5.28,5.03l-5.66 55.7c-0.25,2.25 -3.33,2.58 -4.04,0.46 -5.87,-17.47 -9.94,-35.23 -12.27,-53.25zm285.25 -0.29c4.62,1.42 8.28,2.91 11.07,4.54 1.21,0.71 1.96,1.96 2,3.33l3.08 107.87c0.04,1.91 -1.75,3.33 -3.58,2.87 -36.44,-9.32 -73.51,-14.23 -111.24,-14.68 -2.79,-0.04 -5.03,-2.33 -4.99,-5.12l2.08 -115.86c0.04,-0.87 0.75,-1.54 1.58,-1.46 33.95,2.25 67.27,8.4 100.01,18.51zm-234.25 -11.61c34.99,-5.53 70.3,-8.57 105.58,-8.69 1.71,-0.04 3.12,1.37 3.08,3.08l-2.41 117.35c0,0.92 -0.75,1.62 -1.67,1.62 -37.11,0.08 -74.05,2.62 -110.86,7.57 -5.53,0.71 -8.03,-1.66 -7.57,-7.2l9.19 -108.74c0.21,-2.54 2.16,-4.62 4.66,-4.99zm389.71 58.57c-35.73,-23.71 -71.43,-44.47 -110.95,-57.99 -4.7,-1.62 -8.11,-5.74 -8.78,-10.65l-15.14 -110.28c-0.21,-1.41 1.12,-2.58 2.54,-2.21 35.98,9.78 70.3,22.51 103.04,38.19 7.7,3.66 11.61,11.07 13.73,19.8 9.78,40.06 16.97,79.87 21.63,119.39 0.37,3.33 -3.29,5.62 -6.07,3.74zm-390.5 -193.36c-10.48,35.19 -18.01,71.01 -22.63,107.45 -0.33,2.79 -2.5,5.03 -5.28,5.53l-22.13 3.99c-3.62,0.62 -7.03,-1.79 -7.57,-5.41l-14.93 -97.72c-0.42,-2.7 1.33,-5.28 4.04,-5.91 20.55,-4.74 46.13,-11.11 67.35,-9.61 0.83,0.04 1.41,0.87 1.17,1.66zm240.91 122.01c-33.78,-9.73 -68.18,-16.06 -103.25,-18.93 -2.37,-0.17 -3.49,-1.41 -3.41,-3.79l3.7 -102.75c0.08,-1.96 1.79,-3.45 3.74,-3.2l78.67 9.19c3.25,0.37 5.91,2.79 6.57,5.95 7.86,36.78 13.4,73.88 16.64,111.32 0.12,1.46 -1.25,2.62 -2.66,2.21zm-236.41 -25.09c5.66,-33.49 13.1,-65.77 22.21,-98.51 0.79,-2.83 3.33,-4.78 6.24,-4.87l75.38 -2c2.16,-0.08 3.95,1.71 3.91,3.87l-1.87 102.46c-0.08,3.08 -2.7,5.53 -5.78,5.37 -32.82,-1.5 -65.4,0.5 -97.72,6.03 -1.5,0.25 -2.87,-0.83 -3,-2.33 -0.21,-3.12 0,-6.49 0.62,-10.03zm348.07 -76.34c-32.57,-15.22 -65.48,-25.87 -99.34,-34.98 -3,-0.83 -5.33,-3.25 -5.95,-6.28 -2.91,-14.02 -6.28,-28.12 -10.11,-42.27 -3.62,-13.23 -11.56,-33.61 -15.14,-51.38 -0.25,-1.12 0.75,-2.08 1.87,-1.87 26.08,5.16 51.87,12.15 77.33,21.01 19.43,6.78 50.63,90.61 57.49,110.2 1.33,3.79 -2.54,7.28 -6.16,5.57zm-312.13 -134.41c-12.4,25.08 -22.8,52.33 -29.58,76.42 -2.08,7.28 -6.91,11.07 -14.43,11.36 -22.51,0.79 -45.01,4.08 -67.43,9.86 -2.5,0.62 -4.95,-1.08 -5.24,-3.62 -1.75,-15.81 -7.78,-45.39 0.75,-59.66 7.86,-13.19 11.19,-28.99 28.87,-32.16 28.79,-5.16 56.2,-8.32 82.24,-9.53 5.74,-0.25 7.36,2.21 4.83,7.32zm98.38 78.83l2.75 -85.82c0.08,-1.96 1.75,-3.45 3.66,-3.33l44.26 3.33c1.42,0.08 2.62,1.04 3.04,2.37l28.29 91.56c0.71,2.37 -1.21,4.7 -3.66,4.41l-75.3 -9.03c-1.79,-0.21 -3.08,-1.75 -3.04,-3.5zm-95.18 -22.46c7.36,-18.1 16.22,-37.9 26.58,-59.49 2.66,-5.53 7.03,-8.2 13.14,-8.07l31.03 0.67c1.08,0.04 1.96,0.96 1.91,2.04l-2.37 85.95c-0.08,2.66 -2.33,4.7 -4.95,4.53 -23.01,-1.54 -45.89,-0.83 -68.68,2.08 -1.71,0.21 -3.16,-1.21 -2.95,-2.91 0.87,-8.36 3,-16.64 6.28,-24.79zm98.01 -96.3l1.46 -48.96c0.12,-4.28 5.82,-5.57 7.82,-1.79l27.5 52.37c1.54,2.95 -0.87,6.45 -4.2,6.07l-28.91 -3.45c-2.16,-0.25 -3.74,-2.12 -3.66,-4.24zm-56.54 -1.12c7.24,-17.6 21.8,-38.52 34.82,-51.21 5.95,-5.78 7.95,-4.66 6.07,3.41 -3.29,13.89 -1.91,31.62 -2.87,46.55 -0.25,3.62 -2.21,5.45 -5.87,5.45l-29.29 0.04c-2.2,0 -3.7,-2.21 -2.87,-4.24zm121.14 5.53c-8.07,-19.72 -16.81,-37.69 -27.75,-56.74 -0.42,-0.71 -0.62,-1.54 -0.67,-2.37 -0.04,-5.62 2.54,-7.07 7.65,-4.29 34.44,18.51 66.19,44.3 95.22,77.34 2.21,2.5 1.75,4.33 -1.37,5.53 -1.62,0.62 -3.99,0.54 -7.16,-0.25 -19.55,-5.03 -39.19,-9.48 -58.91,-13.44 -3.37,-0.67 -5.74,-2.58 -7.03,-5.78z"/>
   <path class="fil4" d="M353.09 957.76l-29.45 27.17c-75.21,68.85 -148.8,154.92 -181.29,249.35 -5.7,16.64 -8.57,35.61 -9.49,52.08 -1.96,35.45 22.15,73.97 46.51,98.59 -50.11,-20.88 -91.92,-80.68 -107.54,-130.79 -28.83,-92.39 -14.06,-176.51 44.39,-252.39l49.92 -55.7 20.92 -19.97c19.59,-17.1 39.27,-33.86 59.11,-50.38 24.75,-20.55 51.13,-39.15 77.46,-57.83l63.77 -48.09 18.01 -13.64 46.47 -34.86 59.99 -45.01 98.22 -75.71c3.95,-3.62 8.2,-7.15 12.65,-10.61 123.47,-95.51 245.4,-194.61 359.43,-301.35 4.04,0.12 6.91,2.25 8.65,6.41 0.54,1.25 0.33,2.41 -0.58,3.45 -6.03,6.95 -3.83,22.71 -6.86,32.07 -34.74,106.83 -112.11,197.39 -192.98,274.35 -67.85,64.61 -139.44,124.68 -214.86,180.25 -75.88,55.91 -144.48,104.54 -222.44,172.6z"/>
   <path class="fil5" d="M722.62 1848.13c25.29,84.53 82.04,154.09 152.17,205.3 1.62,1.21 2.5,2.46 2.62,3.83 0.12,1.83 -1.62,3.16 -3.37,2.62 -47.22,-15.39 -92.35,-34.4 -135.41,-57.03 -34.49,-18.14 -55.37,-29.29 -62.73,-33.45 -125.88,-71.3 -213.37,-192.23 -198.43,-341.95 5.78,-58.7 24.29,-113.53 55.62,-164.57 29.08,-44.72 63.86,-85.03 104.33,-120.93 2.21,-1.96 2.83,-3.41 1.91,-4.41 1.25,-1.12 2.5,-1.96 3.79,-2.5 1.21,-0.54 2.33,-1.25 3.33,-2.16 51.46,-47.3 106.66,-89.69 165.65,-127.17 3.79,-2.41 6.91,-6.57 11.48,-9.15 52.67,-29.45 104.71,-59.99 156.12,-91.6 34.35,-25.58 42.66,-44.39 38.52,-65.23 55.58,9.19 119.56,36.07 145.43,90.48 36.28,76.21 -27.21,146.81 -80.45,193.73 -33.24,29.33 -60.53,52.12 -81.91,68.47 -165.2,126.49 -339.63,215.58 -278.68,455.73z"/>
   <path class="fil6" d="M682.66 1973.12c-2.9,-1.58 -5.15,-2.82 -6.76,-3.73 -125.88,-71.3 -213.37,-192.23 -198.43,-341.95 5.78,-58.7 24.29,-113.53 55.62,-164.57 29.08,-44.72 63.86,-85.03 104.33,-120.93 2.21,-1.96 2.83,-3.41 1.91,-4.41 1.25,-1.12 2.5,-1.96 3.79,-2.5 1.21,-0.54 2.33,-1.25 3.33,-2.16 51.46,-47.3 106.66,-89.69 165.65,-127.17 3.79,-2.41 6.91,-6.57 11.48,-9.15 52.67,-29.45 104.71,-59.99 156.12,-91.6 30.38,-22.62 40.39,-39.95 39.43,-58.08 59.96,12.88 114.64,48.04 59.63,121.39 -16.9,22.54 -48.83,51.65 -93.91,84.05 -80.92,58.16 -167.14,102.75 -238.99,173.25 -99.29,97.41 -179.88,189.73 -147.32,327.67 8.82,37.38 41.82,124.91 84.1,219.89z"/>
   <path class="fil7" d="M722.62 1848.13c25.29,84.53 82.04,154.09 152.17,205.3 1.62,1.21 2.5,2.46 2.62,3.83 0.12,1.83 -1.62,3.16 -3.37,2.62 -47.22,-15.39 -92.35,-34.4 -135.41,-57.03 -14.23,-7.48 -26.14,-13.78 -35.75,-18.88 -27.76,-44.12 -47.04,-90.98 -49.04,-131.6 -4.46,-90.57 42.51,-171.34 97.49,-239.34 -38.63,61.24 -54.11,135.06 -28.72,235.11z"/>
  </g>
 </g>
</svg>
