<svg width="22" height="22" viewBox="0 0 22 22" fill="none" xmlns="http://www.w3.org/2000/svg">
<g clip-path="url(#clip0_336_8245)">
<path d="M17.1875 4.8125L4.8125 17.1875" stroke="#F7984B" stroke-width="1.5" stroke-linecap="round" stroke-linejoin="round"/>
<path d="M6.53125 8.9375C7.86019 8.9375 8.9375 7.86019 8.9375 6.53125C8.9375 5.20231 7.86019 4.125 6.53125 4.125C5.20231 4.125 4.125 5.20231 4.125 6.53125C4.125 7.86019 5.20231 8.9375 6.53125 8.9375Z" stroke="#F7984B" stroke-width="1.5" stroke-linecap="round" stroke-linejoin="round"/>
<path d="M15.4688 17.875C16.7977 17.875 17.875 16.7977 17.875 15.4688C17.875 14.1398 16.7977 13.0625 15.4688 13.0625C14.1398 13.0625 13.0625 14.1398 13.0625 15.4688C13.0625 16.7977 14.1398 17.875 15.4688 17.875Z" stroke="#F7984B" stroke-width="1.5" stroke-linecap="round" stroke-linejoin="round"/>
</g>
<defs>
<clipPath id="clip0_336_8245">
<rect width="22" height="22" fill="white"/>
</clipPath>
</defs>
</svg>
